HIERARCHY
ROOT Bip001_Pelvis
{
  OFFSET 33.2923 95.8902 -28.781
  CHANNELS 6 Xposition Yposition Zposition Zrotation Xrotation Yrotation
  JOINT Bip001_Spine
  {
    OFFSET 1.4188e-005 10.2191 -0.0116013
    CHANNELS 3 Zrotation Xrotation Yrotation
    JOINT Bip001_L_Thigh
    {
      OFFSET 11.0458 -10.2192 0.0116197
      CHANNELS 3 Zrotation Xrotation Yrotation
      JOINT Bip001_L_Calf
      {
        OFFSET -0.707118 -44.0221 0.360014
        CHANNELS 3 Zrotation Xrotation Yrotation
        JOINT Bip001_L_Foot
        {
          OFFSET -0.651902 -40.5938 -3.56146
          CHANNELS 3 Zrotation Xrotation Yrotation
          JOINT Bip001_L_Toe0
          {
            OFFSET 0.0530839 -10.2181 13.1504
            CHANNELS 3 Zrotation Xrotation Yrotation
            End Site
            {
              OFFSET -1.02532e-005 0 7.55606
            }
          }
        }
      }
    }
    JOINT Bip001_R_Thigh
    {
      OFFSET -11.0458 -10.2191 0.0115893
      CHANNELS 3 Zrotation Xrotation Yrotation
      JOINT Bip001_R_Calf
      {
        OFFSET 0.706994 -44.0221 0.35984
        CHANNELS 3 Zrotation Xrotation Yrotation
        JOINT Bip001_R_Foot
        {
          OFFSET 0.651786 -40.5938 -3.5613
          CHANNELS 3 Zrotation Xrotation Yrotation
          JOINT Bip001_R_Toe0
          {
            OFFSET -0.0531479 -10.2181 13.1504
            CHANNELS 3 Zrotation Xrotation Yrotation
            End Site
            {
              OFFSET -1.02894e-005 0 7.55606
            }
          }
        }
      }
    }
    JOINT Bip001_Spine1
    {
      OFFSET 1.87041e-005 14.5736 1.08638
      CHANNELS 3 Zrotation Xrotation Yrotation
      JOINT Bip001_Spine2
      {
        OFFSET 2.24614e-005 14.5058 -1.69078
        CHANNELS 3 Zrotation Xrotation Yrotation
        JOINT Bip001_Neck
        {
          OFFSET 2.20278e-005 15.3945 -0.489414
          CHANNELS 3 Zrotation Xrotation Yrotation
          JOINT Bip001_L_Clavicle
          {
            OFFSET 6.06036 -0.000579998 0.00836775
            CHANNELS 3 Zrotation Xrotation Yrotation
            JOINT Bip001_L_UpperArm
            {
              OFFSET 11.5509 -0.0600302 0.00193952
              CHANNELS 3 Zrotation Xrotation Yrotation
              JOINT Bip001_L_Forearm
              {
                OFFSET 25.9523 0.0806089 -2.15551
                CHANNELS 3 Zrotation Xrotation Yrotation
                JOINT Bip001_L_Hand
                {
                  OFFSET 32.2476 0.153767 1.63968
                  CHANNELS 3 Zrotation Xrotation Yrotation
                  JOINT Bip001_L_Finger0
                  {
                    OFFSET 6.04639 -2.20976 5.90322
                    CHANNELS 3 Zrotation Xrotation Yrotation
                    End Site
                    {
                      OFFSET 4.22376 -1.43895 0.606486
                    }
                  }
                  JOINT Bip001_L_Finger1
                  {
                    OFFSET 11.0826 -0.704819 -0.198153
                    CHANNELS 3 Zrotation Xrotation Yrotation
                    End Site
                    {
                      OFFSET 6.20028 -0.397518 -0.0787166
                    }
                  }
                }
              }
            }
          }
          JOINT Bip001_R_Clavicle
          {
            OFFSET -6.06036 -0.000563197 0.00835105
            CHANNELS 3 Zrotation Xrotation Yrotation
            JOINT Bip001_R_UpperArm
            {
              OFFSET -11.5509 -0.0599978 0.00190698
              CHANNELS 3 Zrotation Xrotation Yrotation
              JOINT Bip001_R_Forearm
              {
                OFFSET -25.9523 0.080682 -2.1559
                CHANNELS 3 Zrotation Xrotation Yrotation
                JOINT Bip001_R_Hand
                {
                  OFFSET -32.2476 0.153858 1.63991
                  CHANNELS 3 Zrotation Xrotation Yrotation
                  JOINT Bip001_R_Finger0
                  {
                    OFFSET -6.04641 -2.20974 5.90321
                    CHANNELS 3 Zrotation Xrotation Yrotation
                    End Site
                    {
                      OFFSET -4.22376 -1.43894 0.606474
                    }
                  }
                  JOINT Bip001_R_Finger1
                  {
                    OFFSET -11.0826 -0.704789 -0.198184
                    CHANNELS 3 Zrotation Xrotation Yrotation
                    End Site
                    {
                      OFFSET -6.20028 -0.397501 -0.0787338
                    }
                  }
                }
              }
            }
          }
          JOINT Bip001_Head
          {
            OFFSET 1.09673e-005 11.2744 2.05948
            CHANNELS 3 Zrotation Xrotation Yrotation
            End Site
            {
              OFFSET 2.89576e-005 20.8808 -2.77728e-005
            }
          }
        }
      }
    }
  }
}
MOTION
Frames:	13
Frame Time:	0.04
32.8086 95.8515 -28.6976 0.539381 -0.792507 -0.907804 -0.191446 2.85856 -0.31871 4.51735 -2.7571 5.77584 -0.564468 6.68009 -9.0088 6.036 -0.821092 -0.265523 -2.94289 -5.611 5.00131 -3.55081 -4.60637 -1.41609 0.0915846 11.8021 0.260924 -4.97402 -10.2762 4.33345 2.05334 -7.01694 2.15808 -0.353802 5.71806 -0.622569 -0.353802 5.71806 -0.62257 -0.438956 -1.41891 -2.53919 -24.0731 3.21941 -3.27625 -48.5559 41.3616 -2.82032 13.0836 1.94763 -24.2925 7.83282 1.08049 -2.55133 -0 0 1.59028e-015 -8.82782e-032 3.18056e-015 1.59028e-015 28.6574 9.31245 17.6908 39.2765 46.4176 14.0015 -10.8844 11.9916 10.4582 -12.129 -5.8121 4.36764 -6.62086e-032 -1.59028e-015 -2.38542e-015 0 0 -2.38542e-015 -0.492937 11.1996 -2.40175 
32.7814 95.851 -28.6578 0.486116 -0.834295 -0.82613 -0.196728 2.83512 -0.333713 4.58983 -2.67696 5.79206 -0.583856 6.66995 -9.07459 6.48523 -0.602229 -0.296658 -2.72519 -5.79548 4.87329 -3.45224 -4.44617 -1.3437 0.113132 11.6841 0.235443 -5.01955 -10.2297 4.19039 2.05435 -7.04291 2.15836 -0.377606 5.67132 -0.658878 -0.377607 5.67134 -0.65888 -0.597557 -1.40093 -2.4324 -23.9155 3.21951 -3.24459 -48.5744 41.2924 -2.7898 13.0749 1.96724 -24.2508 7.89188 1.07125 -2.54804 -1.76556e-031 -3.18055e-015 -3.18055e-015 0 0 -3.18055e-015 28.7633 9.31103 17.8202 39.6141 46.2983 13.3753 -11.2104 11.3095 10.8289 -11.6947 -5.80507 4.71998 3.18055e-015 -3.18055e-015 -0 -0 -1.59028e-015 -0 -0.359377 11.2076 -2.38586 
32.7563 95.8513 -28.6268 0.442166 -0.876371 -0.751807 -0.213411 2.81143 -0.348041 4.70878 -2.65666 5.99844 -0.573978 6.81931 -9.29175 5.9794 -1.04332 -0.244594 -2.90336 -5.52613 5.02368 -3.37284 -4.30427 -1.63683 0.0335026 11.6116 0.352421 -4.98347 -10.2394 4.36581 2.05408 -7.02436 2.14645 -0.411119 5.62408 -0.686802 -0.410811 5.62408 -0.686604 -0.752588 -1.40883 -2.31107 -23.7651 3.23521 -3.18896 -48.6303 41.1588 -2.75508 13.0794 2.07276 -24.2362 7.88869 1.12835 -2.53771 -1.76556e-031 -6.36111e-015 -1.59028e-015 -2.64834e-031 -9.54167e-015 -1.59028e-015 28.9065 9.31952 17.8833 39.9328 45.8419 12.6154 -11.5884 10.968 11.2853 -11.3428 -5.81622 5.04186 -3.18055e-015 0 7.95139e-016 -6.36111e-015 0 7.95139e-016 -0.162093 11.2564 -2.37408 
32.7222 95.8365 -28.6008 0.384999 -0.90448 -0.652066 -0.221137 2.79153 -0.368493 4.77879 -2.63294 6.49544 -0.550671 6.86385 -9.96016 6.67931 -0.59905 -0.305676 -2.67889 -5.89324 4.84314 -3.26953 -4.21539 -1.59264 0.0180547 11.5995 0.32658 -5.00885 -10.2609 4.28822 2.05462 -7.01989 2.1423 -0.42713 5.5844 -0.727345 -0.425946 5.58441 -0.727423 -0.912756 -1.44176 -2.19243 -23.5947 3.26867 -3.11887 -48.7635 41.0032 -2.69447 13.1476 2.19322 -24.2738 7.90946 1.13933 -2.58181 3.18055e-015 3.18055e-015 -3.18055e-015 3.18055e-015 3.18056e-015 -1.59028e-015 28.9612 9.31791 17.9017 40.1282 45.5617 11.9337 -12.0548 10.5141 11.6901 -10.8828 -5.85821 5.42154 0 0 -0 3.18055e-015 1.59028e-015 -0 0.0270633 11.2473 -2.36405 
32.6701 95.8387 -28.5663 0.284833 -0.99316 -0.546778 -0.222516 2.78461 -0.384573 4.99269 -2.61414 6.73014 -0.577503 7.07158 -10.2428 6.11336 -1.06927 -0.253123 -2.90206 -5.63857 4.98173 -3.09948 -4.01115 -1.58589 -0.0259724 11.457 0.355464 -5.04476 -10.1984 4.19415 2.05415 -6.99133 2.13754 -0.42862 5.5759 -0.759596 -0.427304 5.57592 -0.759599 -0.995061 -1.49778 -2.10151 -23.5015 3.32287 -3.06116 -48.8243 40.9576 -2.65629 13.1194 2.20311 -24.2782 7.96181 1.08521 -2.59826 3.18055e-015 0 -1.59028e-015 3.18055e-015 -3.18056e-015 -1.59028e-015 28.937 9.3755 18.0151 40.2831 45.3718 11.1086 -12.6344 9.89127 12.0808 -10.3365 -5.86764 5.89347 -3.18055e-015 1.59028e-015 -1.59028e-015 -6.36111e-015 0 -1.59028e-015 0.121342 11.2717 -2.3286 
32.639 95.8424 -28.5473 0.234746 -1.03349 -0.465607 -0.223628 2.77517 -0.395737 5.07946 -2.57868 6.76923 -0.592394 7.12334 -10.3094 6.24127 -1.09902 -0.255254 -2.83155 -5.59794 4.96755 -3.01878 -3.87792 -1.60374 -0.0260112 11.3387 0.346836 -5.05895 -10.1476 4.14805 2.05825 -7.02905 2.15006 -0.435063 5.55184 -0.788042 -0.435131 5.55184 -0.788022 -1.15379 -1.50442 -1.99269 -23.312 3.34985 -3.06464 -49.005 40.9381 -2.54187 13.1728 2.1691 -24.255 7.95723 1.13729 -2.57243 -3.18055e-015 -3.18055e-015 -3.18055e-015 -6.36111e-015 -6.36111e-015 -3.18055e-015 28.8402 9.35738 18.1626 40.5052 45.3241 10.2193 -13.3149 9.143 12.4573 -9.8246 -5.97144 6.33106 6.36111e-015 3.18055e-015 -1.59028e-015 9.54166e-015 -1.59028e-015 -1.59028e-015 0.262522 11.2456 -2.31321 
32.6126 95.84 -28.5375 0.190256 -1.05354 -0.386731 -0.22511 2.75871 -0.396335 5.15607 -2.56436 6.83201 -0.568438 7.16275 -10.485 5.95325 -1.22899 -0.235406 -2.94707 -5.55903 5.01729 -2.9448 -3.77956 -1.61804 -0.0309516 11.2623 0.368832 -5.08999 -10.1325 4.08555 2.05889 -7.01458 2.15028 -0.442739 5.51276 -0.803302 -0.44271 5.51276 -0.8033 -1.21963 -1.49051 -1.93863 -23.3566 3.35938 -3.0983 -48.9584 40.9834 -2.31422 13.1001 1.97934 -24.3634 7.88139 1.14871 -2.49051 3.18055e-015 -6.36111e-015 3.18055e-015 3.18055e-015 -3.18056e-015 3.18055e-015 28.7154 9.35676 18.3559 40.6888 45.4032 9.14579 -14.1571 8.17973 12.9626 -9.17829 -5.92514 6.79183 -3.18055e-015 1.59028e-015 -0 0 0 -1.59028e-015 0.239425 11.2586 -2.27553 
32.5894 95.8402 -28.529 0.15052 -1.10513 -0.330109 -0.226462 2.75778 -0.396626 5.20457 -2.49612 6.73951 -0.578707 7.11878 -10.4571 6.05704 -1.15385 -0.246882 -2.90284 -5.62222 4.97454 -2.88231 -3.67031 -1.6786 -0.0488739 11.182 0.377201 -5.08676 -10.1051 4.09736 2.05842 -7.0091 2.13872 -0.452592 5.51485 -0.803048 -0.452643 5.51484 -0.803046 -1.38237 -1.59756 -1.87132 -23.1918 3.47353 -3.06745 -49.0119 40.9107 -2.21393 13.0313 1.93036 -24.4143 7.87517 1.1173 -2.45254 -3.18055e-015 -6.36111e-015 -1.59028e-015 -3.18055e-015 -6.36111e-015 -1.59028e-015 28.7147 9.46505 18.4848 40.8626 45.3089 7.95048 -15.0988 7.22619 13.6546 -8.57948 -5.80893 7.23662 -3.18055e-015 -1.59028e-015 -0 -3.18055e-015 -1.59028e-015 -0 0.33909 11.3524 -2.2823 
32.5657 95.8468 -28.5289 0.095474 -1.16919 -0.280665 -0.227901 2.76231 -0.396721 5.30232 -2.46278 6.46836 -0.657077 7.14552 -10.1915 6.12611 -1.19493 -0.247836 -2.88133 -5.60024 4.97708 -2.80521 -3.55916 -1.69259 -0.062085 11.0828 0.364353 -5.08706 -10.0574 4.09623 2.06041 -7.00223 2.14772 -0.450783 5.52623 -0.801813 -0.450782 5.52623 -0.801811 -1.60981 -1.66206 -1.76564 -22.9334 3.57913 -3.13154 -49.0832 40.727 -2.19137 13.0173 2.04539 -24.4021 7.82892 1.07844 -2.46793 3.18055e-015 1.59028e-014 -0 3.18055e-015 9.54167e-015 -0 28.716 9.50083 18.5879 41.103 45.0311 6.6015 -16.1417 6.27497 14.5997 -8.09159 -5.63979 7.65607 3.18055e-015 -1.59028e-015 -1.59028e-015 3.18055e-015 -1.59028e-015 -1.59028e-015 0.479439 11.3407 -2.28728 
32.5532 95.8423 -28.5423 0.0477953 -1.22276 -0.23031 -0.229801 2.77151 -0.392154 5.36666 -2.47426 6.39866 -0.680518 7.22486 -10.2293 6.20146 -1.14352 -0.249723 -2.85676 -5.66408 4.95804 -2.74183 -3.47794 -1.63651 -0.0303689 11.0023 0.350902 -5.13622 -10.0107 3.95433 2.06233 -7.02088 2.14819 -0.439651 5.54452 -0.774634 -0.439656 5.54455 -0.774603 -1.82145 -1.827 -1.70207 -22.6889 3.76756 -3.15061 -49.2104 40.7195 -2.10272 12.9662 1.85168 -24.4239 7.8417 1.17671 -2.35523 3.18055e-015 -3.18055e-015 3.18055e-015 3.18055e-015 -6.36111e-015 3.18055e-015 28.8561 9.69857 18.7483 41.4967 44.9166 4.54134 -17.9165 4.49759 16.1104 -6.98999 -5.06718 8.10105 -1.32417e-031 4.77083e-015 1.59028e-015 -3.18055e-015 3.18056e-015 1.59028e-015 0.584395 11.4394 -2.31474 
32.5749 95.8191 -28.5828 0.0758894 -1.21711 -0.196551 -0.241529 2.77562 -0.366251 5.3138 -2.64774 8.0779 -0.443531 7.51173 -12.0122 6.68284 -0.978152 -0.281928 -2.69707 -5.90647 4.82519 -2.77518 -3.59771 -1.30645 0.0487479 11.1909 0.262585 -5.21228 -10.0611 3.67487 2.06504 -7.02977 2.15795 -0.465997 5.55271 -0.722027 -0.466045 5.55271 -0.722035 -1.9736 -2.02832 -1.66977 -22.3268 3.96353 -3.11208 -49.4772 40.7655 -2.13702 12.9773 1.76281 -24.3548 7.82507 1.18081 -2.34481 3.18055e-015 -3.18055e-015 -1.59028e-015 3.18055e-015 -3.18056e-015 -3.18055e-015 29.0761 9.9024 18.6965 42.6661 44.4885 1.06965 -21.3486 1.61675 19.186 -5.06796 -3.40604 7.91315 3.18055e-015 -3.18055e-015 -1.59028e-015 3.18055e-015 -1.59028e-015 -0 0.725099 11.5058 -2.36601 
32.6251 95.8536 -28.6627 0.19661 -1.06294 -0.163983 -0.259738 2.748 -0.322026 5.15921 -2.63206 6.02353 -0.659841 7.03699 -10.0043 6.31398 -0.926404 -0.26722 -2.84223 -5.68491 4.96305 -2.92894 -3.76511 -0.938466 0.185835 11.1668 0.156073 -5.2853 -9.94032 3.36736 2.06379 -7.03479 2.13333 -0.505897 5.49744 -0.63271 -0.505381 5.49743 -0.632639 -2.25064 -2.31332 -1.65969 -22.0311 4.24935 -3.04934 -49.5196 40.8629 -2.1496 12.9776 1.71631 -24.3955 7.86796 1.13827 -2.35198 -6.36111e-015 0 3.18055e-015 -9.54166e-015 -3.18056e-015 4.77083e-015 29.6567 10.1882 18.4748 43.8092 40.9147 -2.6977 -25.2871 -0.124802 23.8531 -1.93623 -0.932032 7.19159 -1.27222e-014 -1.59028e-015 3.18055e-015 -6.36111e-015 -1.59028e-015 1.59028e-015 1.00644 11.686 -2.51538 
32.6452 95.8582 -28.6961 0.180956 -1.07479 -0.115253 -0.243844 2.73988 -0.290821 5.16508 -2.66157 6.16744 -0.663117 7.07725 -10.2291 6.30251 -0.936605 -0.266896 -2.84585 -5.66674 4.96477 -2.92682 -3.72642 -1.12646 0.123395 11.1042 0.147578 -5.2231 -9.90114 3.46759 2.07161 -7.0654 2.15626 -0.47514 5.48095 -0.569219 -0.474751 5.48094 -0.570792 -2.41744 -2.4787 -1.64896 -21.676 4.399 -2.99312 -49.8526 40.7825 -2.09187 12.9002 1.64222 -24.4725 7.82833 1.17286 -2.34613 3.18055e-015 -1.27222e-014 -0 3.18055e-015 -6.36111e-015 -1.59028e-015 29.9575 10.2719 18.1188 44.4902 34.2906 -5.37467 -29.9695 -0.343228 29.4751 2.53228 2.39091 7.82686 3.18055e-015 -4.77083e-015 -0 -0 -4.77083e-015 -0 1.12393 11.7901 -2.58014 
